<?xml version="1.0" encoding="utf-8"?>
<!-- Generator: Adobe Illustrator 22.1.0, SVG Export Plug-In . SVG Version: 6.00 Build 0)  -->
<svg version="1.1" id="Layer_1" xmlns="http://www.w3.org/2000/svg" xmlns:xlink="http://www.w3.org/1999/xlink" x="0px" y="0px"
	 viewBox="0 0 100 100" style="enable-background:new 0 0 100 100;" xml:space="preserve">
<style type="text/css">
	.st0{fill:#FC5830;}
</style>
<g>
	<g>
		<path d="M43.8,28V11.5c0-0.6-0.4-1-1-1s-1,0.4-1,1V28c0,0.6,0.4,1,1,1S43.8,28.6,43.8,28z"/>
		<path d="M29.8,41.7c0-0.6-0.4-1-1-1H12.3c-0.6,0-1,0.4-1,1s0.4,1,1,1h16.5C29.4,42.7,29.8,42.3,29.8,41.7z"/>
		<path d="M25.6,23.2c-0.4-0.4-1-0.4-1.4,0s-0.4,1,0,1.4l5.3,5.3c0.2,0.2,0.5,0.3,0.7,0.3s0.5-0.1,0.7-0.3c0.4-0.4,0.4-1,0-1.4
			L25.6,23.2z"/>
		<path d="M55.7,30l5.3-5.3c0.4-0.4,0.4-1,0-1.4s-1-0.4-1.4,0l-5.3,5.3c-0.4,0.4-0.4,1,0,1.4c0.2,0.2,0.5,0.3,0.7,0.3
			S55.5,30.2,55.7,30z"/>
		<path d="M29.3,53.6L24,58.9c-0.4,0.4-0.4,1,0,1.4c0.2,0.2,0.5,0.3,0.7,0.3s0.5-0.1,0.7-0.3l5.3-5.3c0.4-0.4,0.4-1,0-1.4
			S29.7,53.2,29.3,53.6z"/>
		<path class="st0" d="M85.6,53.5L43.8,41.7c-0.3-0.1-0.7,0-1,0.3s-0.4,0.6-0.3,1L54,85.1c0.1,0.4,0.5,0.7,0.9,0.7c0,0,0,0,0.1,0
			c0.4,0,0.8-0.3,0.9-0.6l8.4-21.7l21.4-8.1c0.4-0.2,0.7-0.5,0.6-1S86,53.6,85.6,53.5z"/>
	</g>
</g>
</svg>
