<svg xmlns="http://www.w3.org/2000/svg" viewBox="0 0 29.33 21.332">
  <defs>
    <style>
      .cls-1 {
        fill: #ff5722;
        fill-rule: evenodd;
      }
    </style>
  </defs>
  <g id="noun_Email_1003623_000000" transform="translate(0)">
    <path id="Path_42" data-name="Path 42" class="cls-1" d="M9.364,970.362a3.45,3.45,0,0,0-3.343,3.177L6,988.245a3.46,3.46,0,0,0,3.447,3.448H31.872a3.469,3.469,0,0,0,3.458-3.448l-.01-14.675a3.466,3.466,0,0,0-3.447-3.208H9.448a.678.678,0,0,0-.083,0ZM34,975.3v12.946a2.123,2.123,0,0,1-2.125,2.114H9.447a2.114,2.114,0,0,1-2.114-2.114V975.319l11.374,11.363c1.092,1.031,3.9,0,3.9,0L34,975.3Z" transform="translate(-6 -970.36)"/>
  </g>
</svg>
