<svg xmlns="http://www.w3.org/2000/svg" viewBox="0 0 25.465 26.204">
  <defs>
    <style>
      .cls-1 {
        fill: #ff5722;
      }
    </style>
  </defs>
  <g id="noun_Share_1897885_000000" transform="translate(0)">
    <path id="Path_41" data-name="Path 41" class="cls-1" d="M6.889,17.193a3.247,3.247,0,1,0,2.8,4.868h0a3.8,3.8,0,0,0,.337-.8c1.77.569,4.8,1.559,7.755,2.55,2.592.864,5.057,1.686,6.385,2.086a2.292,2.292,0,0,0,.337,1.075,2.451,2.451,0,1,0-.232-1.939c-1.349-.421-3.709-1.222-6.216-2.044-3.034-.99-6.153-2.023-7.9-2.571A3.239,3.239,0,0,0,9.586,18.6l10.452-7.481A5.194,5.194,0,0,0,27.9,9.775h0a5.183,5.183,0,1,0-8.977,0h0a5.792,5.792,0,0,0,.485.7L8.954,17.931A3.168,3.168,0,0,0,6.889,17.193Z" transform="translate(-3.629 -2)"/>
  </g>
</svg>
